<?xml version="1.0" encoding="UTF-8" standalone="no"?>
<svg
   xmlns:dc="http://purl.org/dc/elements/1.1/"
   xmlns:cc="http://creativecommons.org/ns#"
   xmlns:rdf="http://www.w3.org/1999/02/22-rdf-syntax-ns#"
   xmlns:svg="http://www.w3.org/2000/svg"
   xmlns="http://www.w3.org/2000/svg"
   xmlns:sodipodi="http://sodipodi.sourceforge.net/DTD/sodipodi-0.dtd"
   xmlns:inkscape="http://www.inkscape.org/namespaces/inkscape"
   width="210mm"
   height="297mm"
   viewBox="0 0 210 297"
   version="1.1"
   id="svg8"
   inkscape:export-filename="/home/akashmony01/Downloads/him -it.jpg.png"
   inkscape:export-xdpi="149.271"
   inkscape:export-ydpi="149.271"
   inkscape:version="1.0.1 (3bc2e813f5, 2020-09-07)"
   sodipodi:docname="himu it capital.svg">
  <defs
     id="defs2" />
  <sodipodi:namedview
     id="base"
     pagecolor="#ffffff"
     bordercolor="#666666"
     borderopacity="1.0"
     inkscape:pageopacity="0.0"
     inkscape:pageshadow="2"
     inkscape:zoom="0.31671439"
     inkscape:cx="273.36843"
     inkscape:cy="601.51276"
     inkscape:document-units="mm"
     inkscape:current-layer="layer1"
     inkscape:document-rotation="0"
     showgrid="false"
     inkscape:window-width="1208"
     inkscape:window-height="960"
     inkscape:window-x="72"
     inkscape:window-y="27"
     inkscape:window-maximized="1" />
  <metadata
     id="metadata5">
    <rdf:RDF>
      <cc:Work
         rdf:about="">
        <dc:format>image/svg+xml</dc:format>
        <dc:type
           rdf:resource="http://purl.org/dc/dcmitype/StillImage" />
        <dc:title></dc:title>
      </cc:Work>
    </rdf:RDF>
  </metadata>
  <g
     inkscape:label="Layer 1"
     inkscape:groupmode="layer"
     id="layer1">
    <text
       xml:space="preserve"
       style="font-size:10.5833px;line-height:1.25;font-family:sans-serif;word-spacing:0px;stroke-width:0.264583"
       x="107.9873"
       y="36.232803"
       id="text843"><tspan
         sodipodi:role="line"
         id="tspan841"
         x="107.9873"
         y="36.232803"
         style="stroke-width:0.264583" /></text>
    <g
       id="g1073-2-0-3"
       transform="matrix(2.8003239,0,0,2.8003239,-90.686353,-237.57276)">
      <g
         aria-label="হিম"
         id="text835-0-2-6"
         style="font-size:115.748px;line-height:0;font-family:sans-serif;word-spacing:0px;stroke-width:1;stroke-miterlimit:4;stroke-dasharray:none"
         transform="matrix(0.25440093,0,0,0.25440093,38.894619,88.660415)">
        <path
           d="m 69.678157,114.75386 h 6.165896 v 9.60799 h -8.534154 v 59.7956 c 0,1.95927 -1.714367,2.93891 -5.1431,2.93891 -2.901235,0 -4.351853,-1.01732 -4.351853,-3.05195 v -61.29434 z"
           style="font-weight:bold;fill:#ffff00;stroke:#000000;stroke-width:1;stroke-miterlimit:4;stroke-dasharray:none"
           id="path866-1-0-7"
           sodipodi:nodetypes="ccccssscc" />
        <path
           d="m 107.15479,124.47489 q 14.24243,4.12578 14.24243,20.34632 0,1.97812 -0.22607,4.06927 -4.06927,16.22055 -26.167639,19.66812 l 36.340799,22.94613 q 0.33911,1.13036 0.33911,2.14767 0,4.52141 -5.19962,4.06927 L 76.917886,167.03262 Q 75.6745,165.3371 75.6745,163.24595 q 0,-4.40838 3.786677,-4.40838 0.847764,0 1.752045,0.33911 4.521407,0.67821 8.590672,0.67821 17.463936,0 22.437476,-12.15128 0.33911,-1.58249 0.33911,-3.10847 0,-4.40837 -2.37374,-7.68639 -2.37374,-3.27802 -6.38649,-4.12578 -1.18687,-0.11303 -2.20418,-0.11303 -12.546904,0 -13.225115,12.49038 -1.243387,2.31722 -4.295336,2.31722 -3.221502,0 -4.238819,-3.2215 0,-4.97355 2.543291,-9.9471 2.543291,-4.97354 6.838627,-7.51683 l -2.938914,-2.31722 H 72.792103 v -9.72103 h 53.126527 v 9.72103 z"
           style="font-weight:bold;fill:#ffff00;stroke:#000000;stroke-width:1;stroke-miterlimit:4;stroke-dasharray:none"
           id="path868-6-6-5" />
        <path
           d="m 182.43621,124.36185 v 60.86943 c -4.40837,2.76936 0,0 -4.40837,2.76936 -2.87147,1.80387 -5.08659,-0.9608 -5.08659,-2.88239 v -4.97355 c 0,-10.66298 -2.43025,-18.14214 -7.29076,-22.43748 -3.76784,-3.42873 -7.89362,-5.1431 -12.37735,-5.1431 -5.42569,0 -9.32541,2.56213 -11.69914,7.68639 -0.37679,1.35643 -0.56518,2.73169 -0.56518,4.12579 0,3.39105 0.99848,6.21693 2.99543,8.47763 2.07231,2.4491 4.87935,3.67365 8.42112,3.67365 1.3941,0.71589 2.09115,2.03463 2.09115,3.95623 0,1.31874 -0.32027,2.48677 -0.9608,3.50409 -0.64053,0.97963 -1.43177,1.43177 -2.37373,1.35642 -9.49495,-0.60285 -15.63653,-5.72711 -18.42473,-15.37278 -0.30143,-2.03463 -0.45215,-3.93739 -0.45215,-5.70828 0,-8.02549 4.2765,-14.43082 12.82949,-19.21598 -0.15071,-2.86355 -1.63901,-4.89818 -4.46488,-6.10389 -2.26071,-0.94196 -4.97355,-1.29991 -8.13854,-1.07384 -3.01427,-0.52749 -4.5214,-2.18534 -4.5214,-4.97354 0,-0.5275 0.0754,-1.09268 0.22607,-1.69553 l 4.06926,-6.83863 h -8.19504 v -9.60799 h 58.28059 l 0.0455,9.60799 z m -9.49496,27.75013 v -27.75013 h -29.95431 l -2.93892,4.86051 c 3.88087,0.75357 7.08354,2.37374 9.60799,4.86051 2.56213,2.4491 4.03159,5.53873 4.40837,9.26889 6.6314,-0.0754 12.92369,2.84471 18.87687,8.76022 z"
           style="font-weight:bold;fill:#ffff00;stroke:#000000;stroke-width:1;stroke-miterlimit:4;stroke-dasharray:none"
           id="path870-19-3-3"
           sodipodi:nodetypes="ccssscscsccscccscccscccccccccccccc" />
      </g>
      <path
         style="fill:#ffff00;stroke:#000000;stroke-width:0.25457;stroke-linecap:butt;stroke-linejoin:miter;stroke-miterlimit:4;stroke-dasharray:none;stroke-opacity:1"
         d="m 37.16577,127.29328 38.911471,-25.97576 6.152741,7.84501 -9.199318,6.19749 -1.376467,-1.78417 7.105565,-4.86114 -3.258966,-4.21921 -37.233504,24.45159 z"
         id="path934-49-6-5"
         sodipodi:nodetypes="ccccccccc" />
      <path
         style="fill:#ffff00;stroke:#000000;stroke-width:0.25457;stroke-linecap:butt;stroke-linejoin:miter;stroke-miterlimit:4;stroke-dasharray:none;stroke-opacity:1"
         d="m 103.29806,127.25233 -38.911565,25.97577 -6.152742,-7.84502 9.199332,-6.19749 2.433657,3.21852 -1.800946,1.37088 -1.158563,-1.42257 -5.203259,3.47849 3.258962,4.2192 37.233604,-24.45159 z"
         id="path934-2-9-9-6"
         sodipodi:nodetypes="ccccccccccc" />
    </g>
    <text
       xml:space="preserve"
       style="font-size:54.3757px;line-height:1.25;font-family:sans-serif;letter-spacing:0px;word-spacing:0px;stroke:#000000;stroke-width:1.22263;stroke-miterlimit:4;stroke-dasharray:none"
       x="10.359071"
       y="241.72713"
       id="text1061-6-4-2"
       transform="scale(1.0333666,0.96771078)"><tspan
         sodipodi:role="line"
         id="tspan1059-94-8-9"
         x="10.359071"
         y="241.72713"
         style="font-style:normal;font-variant:normal;font-weight:bold;font-stretch:normal;font-family:'Bree Serif';-inkscape-font-specification:'Bree Serif Bold';stroke:none;stroke-width:1.22263;stroke-miterlimit:4;stroke-dasharray:none">HIMU</tspan></text>
    <text
       xml:space="preserve"
       style="font-size:19.964px;line-height:1.25;font-family:sans-serif;letter-spacing:13.0347px;word-spacing:0px;fill:#4d4d4d;stroke:none;stroke-width:0.440817;stroke-miterlimit:4;stroke-dasharray:none"
       x="106.05231"
       y="254.40189"
       id="text1065-20-4-1"><tspan
         sodipodi:role="line"
         id="tspan1063-2-0-2"
         x="112.56966"
         y="254.40189"
         style="font-style:normal;font-variant:normal;font-weight:normal;font-stretch:normal;font-size:19.964px;font-family:'Bree Serif';-inkscape-font-specification:'Bree Serif';text-align:center;text-anchor:middle;fill:#333333;stroke:none;stroke-width:0.440817;stroke-miterlimit:4;stroke-dasharray:none">solutions</tspan></text>
    <rect
       style="fill:#ffff00;stroke:#000000;stroke-width:1.40015;stroke-linecap:round;stroke-linejoin:round;stroke-miterlimit:4;stroke-dasharray:none;paint-order:stroke fill markers"
       id="rect1299-3-8-7"
       width="38.741234"
       height="33.520695"
       x="159.65907"
       y="199.61151" />
    <text
       xml:space="preserve"
       style="font-style:normal;font-variant:normal;font-weight:bold;font-stretch:normal;font-size:29.6366px;line-height:1.25;font-family:'Bree Serif';-inkscape-font-specification:'Bree Serif Bold';letter-spacing:1.72584px;word-spacing:0px;stroke-width:0.740918"
       x="166.04837"
       y="226.88745"
       id="text1303-6-4-0"><tspan
         sodipodi:role="line"
         id="tspan1301-8-4-9"
         x="166.04837"
         y="226.88745"
         style="font-style:normal;font-variant:normal;font-weight:bold;font-stretch:normal;font-family:'Bree Serif';-inkscape-font-specification:'Bree Serif Bold';stroke-width:0.740918">IT</tspan></text>
  </g>
</svg>
